# xmcd
#
# Track frame offsets: 
#        150
#        13091
#        30589
#        48383
#        66405
#        85814
#        103634
#        121099
#        141152
#        161599
#        175361
#        197664
#        212825
#        236525
#        254548
#        278154
#        295826
#        307113
#        319844
#
# Disc length: 4614 seconds
#
# Revision: 1
# Processed by: cddbd v1.5.2PL0 Copyright (c) Steve Scherf et al.
# Submitted via: ExactAudioCopyFreeDBPlugin 1.0
#
DISCID=19120413
DTITLE=Flatbush Zombies - Vacation In Hell
DYEAR=2018
DGENRE=Hip-Hop
TTITLE0=HELL-O
TTITLE1=Chunky
TTITLE2=Vacation
TTITLE3=M. Bison
TTITLE4=Headstone
TTITLE5=Big Shrimp
TTITLE6=Leather Symphony (feat. ASAP Twelvyy)
TTITLE7=Reel Girls (feat. Bun B)
TTITLE8=Facts (feat. Jadakiss)
TTITLE9=Ask Courtney
TTITLE10=Crown (feat. Portugal. The Man)
TTITLE11=Proxies
TTITLE12=U&I (feat. Dia)
TTITLE13=The Goddess (feat. Dave B.)
TTITLE14=Trapped
TTITLE15=Best American
TTITLE16=Misunderstood (feat. Nyck Caution)
TTITLE17=YouAreMySunshine
TTITLE18=The Glory (feat. Denzel Curry)
EXTD=
EXTT0=
EXTT1=
EXTT2=
EXTT3=
EXTT4=
EXTT5=
EXTT6=
EXTT7=
EXTT8=
EXTT9=
EXTT10=
EXTT11=
EXTT12=
EXTT13=
EXTT14=
EXTT15=
EXTT16=
EXTT17=
EXTT18=
PLAYORDER=
